<svg width="600" height="600" viewBox="0 0 600 600" fill="none" xmlns="http://www.w3.org/2000/svg">
<path d="M578.23 158.206C577.771 159.168 577.249 160.092 576.666 160.979L386.685 555.267L386.623 555.238C373.371 582.186 309.675 578.755 244.04 547.489C178.194 516.124 135.331 468.623 148.302 441.394C148.43 441.126 148.562 440.861 148.7 440.598L148.599 440.55L338.135 47.1857C338.446 46.225 338.82 45.2858 339.256 44.3696C352.256 17.0802 416.29 20.4408 482.281 51.8758C548.271 83.3107 591.229 130.916 578.23 158.206Z" fill="#9B6332"/>
<path fill-rule="evenodd" clip-rule="evenodd" d="M578.389 339.88C578.693 339.783 578.99 339.665 579.279 339.527C587.485 335.598 586.434 316.328 576.933 296.485C567.432 276.643 553.078 263.743 544.873 267.672C544.597 267.804 544.332 267.954 544.077 268.12L425.296 324.347L459.328 396.24L578.389 339.88Z" fill="#9B6332"/>
<path d="M576.818 332.693C571.189 335.388 560.322 324.405 552.544 308.162C544.767 291.919 543.024 276.567 548.652 273.872C554.28 271.178 565.148 282.16 572.925 298.403C580.703 314.646 582.446 329.998 576.818 332.693Z" fill="#F2D291"/>
<path fill-rule="evenodd" clip-rule="evenodd" d="M351.922 128.784C352.962 126.601 355.572 125.674 357.758 126.713C359.938 127.752 360.867 130.364 359.827 132.546L311.779 233.467C310.739 235.648 308.129 236.576 305.944 235.536C303.763 234.496 302.835 231.886 303.875 229.701L351.922 128.784Z" fill="#784C27"/>
<path fill-rule="evenodd" clip-rule="evenodd" d="M403.912 245.496C404.951 243.311 407.561 242.388 409.747 243.422C411.928 244.462 412.856 247.077 411.816 249.258L363.768 350.175C362.728 352.361 360.118 353.284 357.938 352.244C355.752 351.21 354.824 348.594 355.864 346.414L403.912 245.496Z" fill="#784C27"/>
<path fill-rule="evenodd" clip-rule="evenodd" d="M295.158 362.209C296.198 360.024 298.808 359.095 300.994 360.135C303.174 361.175 304.103 363.785 303.063 365.971L255.015 466.889C253.975 469.069 251.365 469.997 249.18 468.957C246.999 467.918 246.071 465.308 247.111 463.127L295.158 362.209Z" fill="#784C27"/>
<path fill-rule="evenodd" clip-rule="evenodd" d="M423.54 362.204C424.58 360.024 427.19 359.096 429.376 360.135C431.556 361.175 432.485 363.785 431.445 365.971L383.397 466.889C382.357 469.069 379.747 469.997 377.561 468.958C375.381 467.918 374.453 465.308 375.493 463.127L423.54 362.204Z" fill="#784C27"/>
<path fill-rule="evenodd" clip-rule="evenodd" d="M349.527 127.643L349.528 127.643C351.198 124.137 355.39 122.65 358.897 124.318L358.899 124.319C362.4 125.987 363.892 130.181 362.222 133.687C362.222 133.687 362.221 133.687 362.221 133.687L314.173 234.609C312.504 238.11 308.312 239.601 304.804 237.932L304.802 237.93C301.301 236.261 299.81 232.07 301.479 228.561L301.48 228.56L349.527 127.643ZM359.827 132.546C360.867 130.364 359.938 127.752 357.758 126.713C355.572 125.674 352.962 126.601 351.922 128.784L303.875 229.701C302.835 231.886 303.763 234.496 305.944 235.536C308.129 236.576 310.739 235.648 311.779 233.467L359.827 132.546ZM410.885 241.026L410.889 241.028C414.39 242.697 415.882 246.895 414.21 250.399L366.164 351.315C364.494 354.825 360.299 356.309 356.796 354.638C353.288 352.973 351.8 348.775 353.469 345.274C353.469 345.273 353.469 345.273 353.47 345.272L401.516 244.357C403.187 240.844 407.38 239.367 410.882 241.024L410.885 241.026ZM403.912 245.496L355.864 346.414C354.824 348.594 355.752 351.21 357.938 352.244C360.118 353.284 362.728 352.361 363.768 350.175L411.816 249.258C412.856 247.077 411.928 244.462 409.747 243.422C407.561 242.388 404.951 243.311 403.912 245.496ZM302.133 357.74L302.136 357.741C305.637 359.411 307.127 363.602 305.458 367.11L305.458 367.111L257.41 468.029L257.409 468.03C255.74 471.531 251.548 473.022 248.04 471.353L248.038 471.352C244.539 469.683 243.044 465.492 244.716 461.985L292.763 361.07C294.432 357.562 298.624 356.07 302.133 357.74ZM295.158 362.209L247.111 463.127C246.071 465.308 246.999 467.918 249.18 468.957C251.365 469.997 253.975 469.069 255.015 466.889L303.063 365.971C304.103 363.785 303.174 361.175 300.994 360.135C298.808 359.095 296.198 360.024 295.158 362.209ZM421.145 361.064L421.146 361.062C422.816 357.561 427.007 356.071 430.515 357.74L430.518 357.741C434.019 359.411 435.509 363.602 433.84 367.11L433.84 367.111L385.792 468.029L385.791 468.03C384.122 471.531 379.93 473.022 376.422 471.353L376.42 471.352C372.921 469.683 371.427 465.493 373.098 461.987C373.098 461.987 373.098 461.986 373.098 461.986L421.145 361.064ZM375.493 463.127C374.453 465.308 375.381 467.918 377.561 468.958C379.747 469.997 382.357 469.069 383.397 466.889L431.445 365.971C432.485 363.785 431.556 361.175 429.376 360.135C427.19 359.096 424.58 360.024 423.54 362.204L375.493 463.127Z" fill="#784C27"/>
<path d="M567.264 151.518C557.375 173.001 501.904 167.007 443.366 138.13C384.829 109.253 345.393 68.4285 355.282 46.9455C365.172 25.4626 420.643 31.4564 479.18 60.3333C537.717 89.2101 577.154 130.035 567.264 151.518Z" fill="#F2D291"/>
<path fill-rule="evenodd" clip-rule="evenodd" d="M408.905 60.2011C403.899 60.5928 401.27 61.8576 400.007 63.2388C398.743 64.6199 398.078 66.9537 399.276 70.7232C400.461 74.4481 403.306 78.9772 407.819 84.0253C416.819 94.0902 431.848 105.549 450.831 115.883C469.814 126.218 488.846 133.302 504.156 136.471C511.835 138.06 518.32 138.611 523.267 138.224C528.273 137.832 530.902 136.567 532.165 135.186C533.429 133.805 534.094 131.471 532.895 127.702C531.711 123.977 528.866 119.448 524.352 114.399C515.353 104.335 500.324 92.8759 481.341 82.5413C462.357 72.2068 443.326 65.1229 428.016 61.9538C420.337 60.3644 413.852 59.814 408.905 60.2011ZM431.06 54.7224C447.573 58.1407 467.501 65.6254 487.071 76.2793C506.641 86.9331 522.459 98.9087 532.167 109.765C537.006 115.178 540.48 120.481 542.025 125.34C543.556 130.155 543.36 135.157 539.62 139.244C535.88 143.331 529.835 145.149 523.441 145.65C516.987 146.155 509.345 145.407 501.112 143.702C484.599 140.284 464.671 132.799 445.101 122.145C425.531 111.492 409.713 99.516 400.005 88.6597C395.166 83.2471 391.692 77.9439 390.147 73.0845C388.616 68.2698 388.812 63.2673 392.552 59.1803C396.291 55.0933 402.337 53.2756 408.731 52.7752C415.185 52.2702 422.827 53.0182 431.06 54.7224Z" fill="#D09836"/>
<path fill-rule="evenodd" clip-rule="evenodd" d="M441.037 84.6234C441.037 84.6234 441.042 84.6197 441.052 84.6136C441.043 84.6205 441.037 84.6234 441.037 84.6234ZM441.141 84.5694C441.321 84.4922 441.761 84.3516 442.673 84.2802C444.284 84.1542 446.636 84.3246 449.658 84.9502C455.655 86.1916 463.286 89.0122 470.987 93.2048C478.688 97.3973 484.69 101.998 488.215 105.941C489.992 107.928 490.988 109.58 491.373 110.792C491.592 111.479 491.568 111.847 491.533 112.003C491.354 112.08 490.913 112.221 490.001 112.292C488.39 112.418 486.039 112.248 483.017 111.622C477.019 110.381 469.389 107.56 461.687 103.368C453.986 99.175 447.985 94.5741 444.459 90.6315C442.683 88.6446 441.687 86.9928 441.301 85.7799C441.083 85.0932 441.107 84.7258 441.141 84.5694ZM491.502 112.096C491.502 112.096 491.504 112.092 491.509 112.083C491.505 112.092 491.502 112.096 491.502 112.096ZM491.623 111.959C491.632 111.952 491.637 111.949 491.637 111.949C491.637 111.949 491.633 111.953 491.623 111.959ZM441.165 84.4896C441.169 84.4802 441.172 84.476 441.172 84.476C441.172 84.476 441.171 84.4809 441.165 84.4896ZM452.701 77.7188C459.902 79.2094 468.429 82.4308 476.717 86.9427C485.005 91.4546 491.796 96.5725 496.029 101.306C498.132 103.658 499.756 106.084 500.503 108.431C501.235 110.734 501.291 113.589 499.015 116.076C496.74 118.563 493.233 119.479 490.175 119.718C487.057 119.962 483.55 119.594 479.973 118.854C472.772 117.363 464.245 114.142 455.957 109.63C447.67 105.118 440.878 99.9999 436.645 95.2659C434.543 92.9145 432.918 90.4886 432.172 88.1413C431.44 85.8386 431.383 82.983 433.659 80.4962C435.935 78.0093 439.442 77.0937 442.5 76.8544C445.617 76.6104 449.125 76.9785 452.701 77.7188Z" fill="#D09836"/>
<path fill-rule="evenodd" clip-rule="evenodd" d="M156.804 144.273C158.433 144.674 160.156 144.281 161.45 143.214L267.421 55.7821C271.317 52.5677 277.076 56.1014 275.975 61.0308L246.022 195.11C245.656 196.747 246.086 198.461 247.182 199.732L285.647 244.328L261.981 297.28L197.129 281.293C195.5 280.891 193.777 281.284 192.483 282.351L86.5119 369.782C82.6158 372.996 76.857 369.462 77.9584 364.533L107.916 230.46C108.282 228.822 107.852 227.108 106.756 225.838L14.7579 119.175C11.382 115.261 15.0264 109.322 20.0448 110.559L156.804 144.273ZM142.33 191.765C154.566 171.828 180.104 165.249 199.371 177.072C218.637 188.896 224.337 214.643 212.101 234.58C199.871 254.518 174.333 261.097 155.066 249.274C135.8 237.45 130.099 211.703 142.33 191.765Z" fill="#414141"/>
<path fill-rule="evenodd" clip-rule="evenodd" d="M288.757 243.871L263.498 300.386L196.494 283.868C195.679 283.667 194.818 283.864 194.171 284.397L88.2 371.828C82.3559 376.649 73.7176 371.348 75.3697 363.954L105.327 229.881C105.51 229.062 105.295 228.206 104.747 227.57L12.7493 120.907C7.68548 115.036 13.152 106.128 20.6797 107.984L157.439 141.697C158.253 141.898 159.115 141.702 159.762 141.168L265.733 53.736C271.577 48.9145 280.215 54.2151 278.564 61.6091L248.611 195.688C248.428 196.507 248.643 197.364 249.191 197.999L288.757 243.871ZM212.101 234.58C224.337 214.643 218.637 188.896 199.371 177.072C180.104 165.249 154.566 171.828 142.33 191.765C130.099 211.703 135.8 237.45 155.066 249.274C174.333 261.097 199.871 254.518 212.101 234.58ZM144.591 193.152C133.081 211.915 138.508 236 156.454 247.013C174.399 258.026 198.331 251.955 209.84 233.193L209.841 233.193C221.356 214.431 215.929 190.346 197.983 179.333C180.038 168.32 156.106 174.39 144.591 193.152ZM161.45 143.214C160.156 144.281 158.433 144.674 156.804 144.273L20.0448 110.559C15.0264 109.322 11.382 115.261 14.7579 119.175L106.756 225.838C107.852 227.108 108.282 228.822 107.916 230.46L77.9584 364.533C76.857 369.462 82.6158 372.996 86.5119 369.782L192.483 282.351C193.777 281.284 195.5 280.891 197.129 281.293L261.981 297.28L285.647 244.328L247.182 199.732C246.086 198.461 245.656 196.747 246.022 195.11L275.975 61.0308C277.076 56.1014 271.317 52.5677 267.421 55.7821L161.45 143.214Z" fill="white"/>
</svg>
